<svg xmlns="http://www.w3.org/2000/svg" width="125" height="276" viewBox="0 0 125 276" version="1.1"><path d="M 65 137.059 C 65 137.641, 64.586 137.862, 64.080 137.550 C 63.574 137.237, 60.945 139.123, 58.237 141.740 C 53.322 146.492, 53.322 146.493, 57.907 142.500 C 62.500 138.500, 62.500 138.500, 62.783 149.750 C 62.938 155.938, 63.446 161, 63.910 161 C 66.398 161, 67.118 157.684, 66.816 147.611 C 66.500 137.085, 66.500 137.085, 69.500 136.703 C 72.150 136.365, 72.062 136.301, 68.750 136.160 C 66.677 136.072, 65 136.473, 65 137.059 M 63.813 149.185 C 64.212 163.028, 66 162.556, 66 148.608 C 66 141.056, 65.669 138.333, 64.750 138.331 C 63.807 138.330, 63.577 140.999, 63.813 149.185 M 63.430 177.250 C 62.230 178.650, 61.625 180.591, 61.830 182.388 C 62.067 184.463, 61.785 185.134, 60.830 184.775 C 60.098 184.500, 58.375 183.992, 57 183.648 C 55.311 183.224, 55.572 183.512, 57.805 184.536 C 59.622 185.369, 61.557 185.774, 62.103 185.436 C 62.755 185.034, 63.045 196.233, 62.946 217.976 C 62.864 236.210, 63.026 251.359, 63.307 251.640 C 63.588 251.921, 63.878 235.358, 63.952 214.833 C 64.035 191.647, 64.462 177.138, 65.079 176.521 C 65.736 175.864, 65.975 188.115, 65.786 212.765 C 65.629 233.245, 65.864 250.001, 66.309 250.001 C 66.754 250, 66.794 250.563, 66.399 251.250 C 66.003 251.938, 66.023 252.191, 66.443 251.813 C 66.863 251.436, 67.138 236.473, 67.055 218.563 C 66.903 186, 66.903 186, 70.702 185.840 C 74.394 185.684, 74.409 185.669, 71.250 185.277 C 68.612 184.949, 68 184.427, 68 182.506 C 68 181.083, 68.698 179.967, 69.750 179.707 C 70.713 179.470, 70.487 179.376, 69.250 179.499 C 67.489 179.674, 67 179.210, 67 177.361 C 67 174.399, 65.906 174.365, 63.430 177.250" stroke="none" fill="#605f65" fill-rule="evenodd"/><path d="M 56.294 24.037 C 54.579 33.232, 47.354 47.119, 39.986 55.382 C 33.203 62.990, 32 65.330, 32 70.917 C 32 76.428, 35.548 81.164, 41.033 82.976 C 46.771 84.871, 46.595 84.685, 44.661 86.823 C 43.747 87.832, 43 89.582, 43 90.712 C 43 92.678, 43.174 92.706, 47.084 91.359 C 52.169 89.607, 57.095 90.759, 61.156 94.650 C 63.991 97.365, 64.899 100, 63 100 C 62.450 100, 62 101.077, 62 102.393 C 62 105.349, 64.820 106.609, 66.862 104.566 C 68.155 103.274, 68.176 102.697, 67.009 100.517 C 65.757 98.178, 65.878 97.736, 68.527 94.972 C 72.467 90.859, 77.677 89.554, 82.929 91.364 C 86.879 92.724, 87 92.701, 87 90.574 C 87 89.369, 86.375 87.527, 85.610 86.482 C 84.323 84.722, 84.562 84.467, 88.837 83.041 C 94.470 81.161, 98 76.490, 98 70.917 C 98 65.442, 96.728 62.825, 90.984 56.483 C 81.945 46.502, 75.533 34.416, 72.953 22.500 C 72.286 19.418, 72.143 20.679, 72.331 28 C 72.543 36.312, 72.975 38.356, 75.780 44.347 C 77.543 48.113, 80.277 52.838, 81.856 54.847 C 85.401 59.359, 88 64.341, 88 66.625 C 88 68.086, 87.583 67.980, 85.257 65.924 C 82.875 63.819, 82.760 63.792, 84.382 65.717 C 86.689 68.455, 86.773 72.172, 84.602 75.485 C 83.297 77.476, 82.123 78, 78.962 78 C 73.150 78, 67.991 73.101, 67.294 66.920 C 66.867 63.123, 67.186 61.932, 69.309 59.409 C 71.743 56.517, 71.788 56.216, 70.570 50.955 C 69.876 47.955, 68.518 40.100, 67.552 33.500 C 65.191 17.357, 64.477 15.816, 63.623 25.022 C 63.242 29.135, 61.872 37.897, 60.580 44.492 C 58.230 56.485, 58.230 56.485, 60.722 59.446 C 62.812 61.931, 63.132 63.135, 62.706 66.920 C 61.672 76.092, 50.933 81.545, 46.073 75.365 C 43.767 72.435, 43.477 69.951, 45.056 66.684 C 46.035 64.660, 45.960 64.676, 44.031 66.892 C 42.887 68.207, 41.804 69.107, 41.626 68.892 C 40.770 67.858, 43.361 61.716, 46.491 57.358 C 55.024 45.481, 58.411 35.525, 57.828 24.037 C 57.500 17.574, 57.500 17.574, 56.294 24.037 M 61.512 78.169 C 58.555 80.495, 58.260 84.021, 60.829 86.345 C 63.288 88.570, 66.568 88.432, 69 86 C 71.383 83.617, 71.499 82.158, 69.531 79.347 C 67.403 76.310, 64.431 75.873, 61.512 78.169 M 56.249 99.995 C 55.251 102.550, 56.310 107.456, 58.098 108.561 C 59.493 109.423, 59.163 111, 57.589 111 C 55.275 111, 51 116.889, 51 120.077 C 51 123.765, 52.050 123.777, 54.755 120.118 C 58.825 114.613, 66.019 114.289, 68.008 119.521 C 69.476 123.383, 67.048 128.086, 60.421 134.219 C 54.278 139.903, 49.960 147.561, 50.112 152.500 C 50.205 155.500, 50.205 155.500, 50.929 152.500 C 52.026 147.954, 53.502 145.682, 58.001 141.618 C 63.575 136.582, 66.019 135.626, 71.293 136.417 C 86.763 138.736, 95.090 156.874, 86.378 169.270 C 82.831 174.316, 78 177.738, 72.250 179.277 C 68.817 180.196, 68 180.855, 68 182.707 C 68 184.629, 68.526 184.998, 71.250 184.990 C 76.082 184.976, 84.004 180.864, 88.227 176.179 C 95.049 168.612, 97.236 159.762, 94.559 150.555 C 91.701 140.722, 82.623 133.074, 73.750 133.022 C 71.688 133.010, 70 132.832, 70 132.626 C 70 132.420, 71.170 130.158, 72.600 127.600 C 76.806 120.074, 83.882 117.791, 88.545 122.455 C 91.191 125.100, 91.861 130.523, 89.977 134.043 C 89.178 135.535, 89.405 136.405, 91.013 138.013 C 93.072 140.072, 93.072 140.072, 94.642 136.315 C 96.802 131.146, 96.009 123.703, 92.954 120.451 C 91.670 119.084, 88.936 117.462, 86.878 116.845 C 83.657 115.880, 82.540 116.019, 78.862 117.838 C 74.587 119.953, 73.057 119.557, 73.015 116.323 C 73.007 115.675, 71.804 114.204, 70.342 113.055 C 67.685 110.964, 67.685 110.964, 69.768 108.732 C 70.914 107.504, 72.132 105.150, 72.475 103.500 C 73.099 100.500, 73.099 100.500, 71.612 103.715 C 68.592 110.247, 60.556 108.886, 58.387 101.476 C 57.249 97.590, 57.200 97.557, 56.249 99.995 M 50.307 131.275 C 45.220 135.187, 42.591 138.479, 40.004 144.180 C 37.567 149.551, 37.368 159.789, 39.575 166.266 C 42.384 174.510, 50.399 181.726, 59.825 184.499 C 61.896 185.108, 62.115 184.888, 61.825 182.491 C 61.570 180.378, 60.669 179.516, 57.627 178.476 C 47.783 175.109, 40.582 164.575, 40.689 153.696 C 40.767 145.683, 43.842 139.034, 50.374 132.750 C 56.142 127.202, 56.123 126.802, 50.307 131.275 M 64.750 138.580 C 64.338 138.994, 64 144.073, 64 149.867 C 64 157.138, 64.321 160.079, 65.037 159.363 C 65.658 158.742, 65.959 154.214, 65.787 148.076 C 65.629 142.438, 65.162 138.165, 64.750 138.580 M 69 159.469 C 62.125 166.820, 56.500 173.383, 56.500 174.053 C 56.500 174.723, 57.452 175.623, 58.615 176.053 C 60.422 176.722, 62.401 175.060, 72.173 164.668 C 78.467 157.976, 83.948 151.947, 84.354 151.271 C 85.121 149.994, 83.468 145.961, 82.215 146.052 C 81.822 146.080, 75.875 152.118, 69 159.469 M 64.795 176.582 C 64.407 177.177, 64.027 194.263, 63.951 214.550 C 63.820 249.227, 64.199 254.723, 66.467 251.053 C 66.825 250.474, 66.754 250, 66.309 250.001 C 65.864 250.001, 65.631 237.964, 65.791 223.251 C 66.134 191.787, 65.777 175.075, 64.795 176.582 M 45.263 188.250 C 37.961 200.385, 35.566 209.554, 36.161 223.101 C 36.508 230.998, 37.065 233.539, 39.647 239 C 43.958 248.116, 49.761 254.265, 57.782 258.213 C 63.703 261.128, 65.365 261.493, 72.479 261.439 C 84.866 261.345, 93.057 256.752, 98.544 246.824 C 101.023 242.339, 101.483 240.396, 101.467 234.500 C 101.453 229.673, 100.877 226.413, 99.609 224 C 97.436 219.862, 93.301 215.235, 90.500 213.810 C 89.400 213.251, 90.147 214.189, 92.160 215.895 C 97.257 220.215, 100 226.321, 100 233.348 C 100 240.156, 98.427 244.306, 93.882 249.481 C 89.190 254.825, 82.007 257.978, 74.493 257.990 C 66.635 258.003, 62.647 256.778, 56.290 252.400 C 45.749 245.140, 40.369 232.846, 41.261 218.055 C 41.846 208.351, 44.113 201.484, 49.877 191.951 C 53.733 185.574, 53.733 185.574, 51.252 184.287 C 49.888 183.579, 48.693 183, 48.597 183 C 48.501 183, 47.001 185.363, 45.263 188.250" stroke="none" fill="#0b0a0d" fill-rule="evenodd"/></svg>